<svg width="20" height="22" viewBox="0 0 20 22" fill="none" xmlns="http://www.w3.org/2000/svg">
<path d="M18.1722 9.18421H1.83008M13.6327 1.92105V5.55263M6.36955 1.92105V5.55263M6.18797 20.0789H13.8143C15.3397 20.0789 16.1024 20.0789 16.685 19.7821C17.1975 19.521 17.6142 19.1043 17.8753 18.5918C18.1722 18.0092 18.1722 17.2465 18.1722 15.7211V8.09474C18.1722 6.56933 18.1722 5.80663 17.8753 5.224C17.6142 4.7115 17.1975 4.29483 16.685 4.0337C16.1024 3.73684 15.3397 3.73684 13.8143 3.73684H6.18797C4.66257 3.73684 3.89986 3.73684 3.31724 4.0337C2.80474 4.29483 2.38807 4.7115 2.12694 5.224C1.83008 5.80663 1.83008 6.56933 1.83008 8.09474V15.7211C1.83008 17.2465 1.83008 18.0092 2.12694 18.5918C2.38807 19.1043 2.80474 19.521 3.31724 19.7821C3.89986 20.0789 4.66257 20.0789 6.18797 20.0789Z" stroke="white" stroke-width="2" stroke-linecap="round" stroke-linejoin="round"/>
</svg>
