<svg width="23" height="23" viewBox="0 0 23 23" fill="none" xmlns="http://www.w3.org/2000/svg">
<path d="M22.32 7.6247C22.32 7.6247 22.32 7.6247 22.32 7.56703C21.5081 5.34821 20.0349 3.43254 18.0997 2.07916C16.1645 0.72578 13.8607 0 11.5 0C9.13925 0 6.83547 0.72578 4.90029 2.07916C2.96511 3.43254 1.49193 5.34821 0.680029 7.56703C0.680029 7.56703 0.680029 7.56703 0.680029 7.6247C-0.226676 10.1285 -0.226676 12.8715 0.680029 15.3753C0.680029 15.3753 0.680029 15.3753 0.680029 15.433C1.49193 17.6518 2.96511 19.5675 4.90029 20.9208C6.83547 22.2742 9.13925 23 11.5 23C13.8607 23 16.1645 22.2742 18.0997 20.9208C20.0349 19.5675 21.5081 17.6518 22.32 15.433C22.32 15.433 22.32 15.433 22.32 15.3753C23.2267 12.8715 23.2267 10.1285 22.32 7.6247ZM2.55826 13.8067C2.15868 12.2949 2.15868 10.7051 2.55826 9.19327H4.70151C4.51718 10.7256 4.51718 12.2744 4.70151 13.8067H2.55826ZM3.50313 16.1135H5.11633C5.3868 17.1421 5.77338 18.1365 6.26862 19.0776C5.13857 18.3071 4.19392 17.2946 3.50313 16.1135ZM5.11633 6.88654H3.50313C4.18398 5.70905 5.11655 4.69684 6.23405 3.92239C5.75073 4.86497 5.37576 5.85938 5.11633 6.88654ZM10.3247 20.3809C8.90939 19.3414 7.91541 17.8265 7.52461 16.1135H10.3247V20.3809ZM10.3247 13.8067H7.02913C6.8141 12.2764 6.8141 10.7236 7.02913 9.19327H10.3247V13.8067ZM10.3247 6.88654H7.52461C7.91541 5.17353 8.90939 3.65864 10.3247 2.61909V6.88654ZM19.4508 6.88654H17.8376C17.5671 5.85792 17.1805 4.86347 16.6853 3.92239C17.8153 4.69292 18.76 5.70543 19.4508 6.88654ZM12.6292 2.61909C14.0445 3.65864 15.0385 5.17353 15.4293 6.88654H12.6292V2.61909ZM12.6292 20.3809V16.1135H15.4293C15.0385 17.8265 14.0445 19.3414 12.6292 20.3809ZM15.9248 13.8067H12.6292V9.19327H15.9248C16.1398 10.7236 16.1398 12.2764 15.9248 13.8067ZM16.7199 19.0776C17.2151 18.1365 17.6017 17.1421 17.8721 16.1135H19.4853C18.7946 17.2946 17.8499 18.3071 16.7199 19.0776ZM20.3957 13.8067H18.2524C18.3461 13.0414 18.3923 12.271 18.3907 11.5C18.3919 10.729 18.3458 9.95861 18.2524 9.19327H20.3957C20.7952 10.7051 20.7952 12.2949 20.3957 13.8067Z" fill="white"/>
</svg>
