<svg width="27" height="20" viewBox="0 0 27 20" fill="none" xmlns="http://www.w3.org/2000/svg">
<path d="M26.1314 7.0125L24.8831 6.325L13.6484 0.0749999H13.5111C13.4346 0.0425984 13.3552 0.0174876 13.2739 0H13.0368H12.8121C12.7268 0.0174991 12.6432 0.0425989 12.5624 0.0749999H12.4251L1.19044 6.325C0.998328 6.43402 0.838536 6.59212 0.727364 6.78317C0.616191 6.97422 0.557617 7.19138 0.557617 7.4125C0.557617 7.63362 0.616191 7.85078 0.727364 8.04183C0.838536 8.23288 0.998328 8.39098 1.19044 8.5L4.29869 10.225V16.15C4.29869 17.1446 4.69324 18.0984 5.39555 18.8017C6.09785 19.5049 7.05037 19.9 8.04358 19.9H18.0299C19.0231 19.9 19.9757 19.5049 20.678 18.8017C21.3803 18.0984 21.7748 17.1446 21.7748 16.15V10.225L24.2714 8.825V12.4C24.2714 12.7315 24.4029 13.0495 24.637 13.2839C24.8711 13.5183 25.1886 13.65 25.5197 13.65C25.8508 13.65 26.1683 13.5183 26.4024 13.2839C26.6365 13.0495 26.768 12.7315 26.768 12.4V8.1C26.7676 7.87851 26.7085 7.66109 26.5966 7.47C26.4848 7.27892 26.3242 7.12103 26.1314 7.0125ZM19.2782 16.15C19.2782 16.4815 19.1467 16.7995 18.9126 17.0339C18.6785 17.2683 18.361 17.4 18.0299 17.4H8.04358C7.71251 17.4 7.395 17.2683 7.1609 17.0339C6.9268 16.7995 6.79528 16.4815 6.79528 16.15V11.6125L12.4251 14.7375L12.6123 14.8125H12.7247C12.8283 14.8256 12.9331 14.8256 13.0368 14.8125C13.1404 14.8256 13.2452 14.8256 13.3488 14.8125H13.4612C13.5275 14.7985 13.5908 14.7731 13.6484 14.7375L19.2782 11.6125V16.15ZM13.0368 12.225L4.37359 7.4L13.0368 2.575L21.6999 7.4L13.0368 12.225Z" fill="white"/>
</svg>
