<?xml version="1.0" encoding="utf-8"?>
<!-- Generator: Adobe Illustrator 23.0.2, SVG Export Plug-In . SVG Version: 6.00 Build 0)  -->
<svg version="1.1" id="main" xmlns="http://www.w3.org/2000/svg" xmlns:xlink="http://www.w3.org/1999/xlink" x="0px" y="0px"
	 viewBox="0 0 600 600" style="enable-background:new 0 0 600 600;" xml:space="preserve">
<g>
	<path fill="#FFFFFF" d="M256.11,287.93c-0.43,9.86-3.49,18.49-7.29,26.86c-6.02,13.27-14.51,24.89-24.15,35.74
		c-10.78,12.14-23.7,21.55-37.42,30.03c-11.38,7.04-23.49,12.46-35.9,17.35c-17.46,6.88-34.43,14.82-50.39,24.79
		c-11.13,6.96-21.54,14.83-31.15,23.79c-5.04,4.69-9.69,9.72-14.08,15c-1.22,1.47-1.29,1.47-2.35-0.11
		c-3.1-4.65-5.76-9.57-8.62-14.37c-3.23-5.42-5.81-11.17-8.62-16.8c-1.34-2.69-2.98-5.24-4.34-7.92c-1.63-3.19-3.28-6.44-4.23-9.88
		c-1.05-3.78-2.7-7.32-3.89-11.03c-0.23-0.71-0.17-1.17,0.08-1.74c3.88-8.72,8.58-16.88,15.1-23.97
		c6.01-6.54,12.25-12.85,18.88-18.74c4.42-3.93,9.45-7.08,14.6-9.99c18.81-10.63,38.77-18.24,59.83-23.11
		c15.22-3.52,30.52-6.7,45.78-10.05c14.99-3.29,29.63-7.73,43.68-13.96c5.83-2.59,11.48-5.56,17.05-8.7
		c4.37-2.47,8.59-5.2,13.18-7.29c3.11-1.41,4.02-0.92,4.26,2.45C256.16,287.02,256.11,287.75,256.11,287.93z"/>
	<path fill="#FFFFFF" d="M345.72,283.02c0.36,0.12,0.83,0.24,1.26,0.44c1.94,0.92,3.92,1.76,5.76,2.89c19.03,11.68,39.32,20.33,61.07,25.56
		c14.33,3.45,28.82,6.19,43.18,9.5c11.03,2.54,22.09,5.04,32.82,8.69c15.3,5.21,29.92,11.92,43.62,20.55
		c4.6,2.9,8.77,6.35,12.73,10.1c6.45,6.1,12.61,12.46,18.42,19.17c1.32,1.52,2.3,3.26,3.39,4.92c2.94,4.47,5.51,9.15,7.71,14.03
		c0.66,1.46,0.71,2.74,0.11,4.22c-1.61,3.99-3.03,8.05-4.65,12.04c-2.07,5.1-4.6,9.98-7.23,14.83c-1.87,3.44-3.47,7.05-5.29,10.53
		c-2.11,4.02-4.5,7.87-6.75,11.81c-1.74,3.05-3.59,6.03-5.45,9c-1.11,1.77-1.16,1.74-2.42,0.19c-9-11.11-19.56-20.58-30.99-29.09
		c-12.39-9.23-25.74-16.88-39.65-23.57c-11.14-5.36-22.56-10.08-34.07-14.56c-11.44-4.45-21.94-10.63-32.27-17.14
		c-7.72-4.86-15.07-10.24-21.84-16.35c-6.88-6.22-13-13.17-18.67-20.5c-9.31-12.04-16.63-25.11-20.9-39.8
		c-1.21-4.16-1.64-8.42-2.1-12.69c-0.12-1.14,0.26-2.21,0.42-3.31C344.06,283.61,344.71,283.1,345.72,283.02z"/>
	<path fill="#FFFFFF" d="M594.07,285.45c0-0.48,0.03-0.96-0.02-1.44c-0.46-4.24-1.14-8.46-1.1-12.75c0.02-1.98-0.8-3.89-0.5-5.9
		c0.04-0.28-0.09-0.67-0.28-0.88c-0.6-0.68-0.47-1.49-0.5-2.28c-0.03-0.8,0.05-1.63-0.15-2.38c-0.82-3.07-1.11-6.25-1.67-9.36
		c-0.63-3.51-1.28-7.02-1.88-10.53c-1.27-7.41-3.09-14.69-5.25-21.89c-0.49-1.65-0.79-3.43-1.48-4.93
		c-2.07-4.53-3.14-9.39-5.09-13.95c-1.51-3.52-2.64-7.19-3.95-10.79c-1.36-3.75-2.98-7.38-4.64-10.97
		c-3.79-8.2-7.92-16.25-12.44-24.08c-2.13-3.69-4.41-7.29-6.64-10.91c-0.68-1.11-1.47-2.16-2.16-3.26c-1.12-1.78-2.6-3.3-3.73-5.03
		c-2.7-4.15-5.67-8.11-8.66-12.02c-2.45-3.22-4.91-6.46-7.61-9.51c-3-3.38-5.78-6.98-8.88-10.28c-4.49-4.78-9.21-9.34-13.81-14.02
		c-2.09-2.12-3.98-4.46-6.22-6.4c-2.12-1.84-4.21-3.74-6.29-5.62c-2.73-2.47-5.67-4.65-8.51-6.95c-3.38-2.73-6.91-5.31-10.48-7.83
		c-3.62-2.56-7.17-5.24-10.85-7.71c-4.95-3.33-10.12-6.35-15.26-9.38c-3.48-2.05-7.14-3.82-10.64-5.84
		c-4.57-2.65-9.56-4.42-14.22-6.9c-2.58-1.37-5.34-2.41-8.06-3.51c-3.86-1.57-7.72-3.15-11.64-4.55c-5.31-1.9-10.63-3.77-16.02-5.39
		c-3.84-1.15-7.65-2.43-11.61-3.22c-4.37-0.87-8.63-2.29-13-3.23c-2.88-0.62-5.8-1.04-8.68-1.68c-3.48-0.77-7.08-1.43-10.63-1.62
		c-4.24-0.23-8.34-1.52-12.6-1.37c-0.24,0.01-0.49,0.03-0.72-0.04c-3.36-1-6.86-0.32-10.3-0.99c-3.63-0.7-7.44-0.26-11.18-0.47
		c-5.22-0.28-10.5-0.54-15.76,0.28c-2.26,0.35-4.65,0.25-6.95,0.01c-2.43-0.25-4.62,1-7.02,0.73c-3.11-0.35-6.15,0.77-9.26,0.48
		c-0.16-0.01-0.35-0.03-0.47,0.04c-2.22,1.28-4.74,0.83-7.11,1.12c-1.79,0.22-3.73,0.26-5.38,0.71c-2.92,0.79-5.93,0.85-8.86,1.63
		c-3.2,0.85-6.57,1.35-9.88,1.9c-0.9,0.15-1.91,0.12-2.75,0.55c-1.88,0.96-3.97,1.14-5.96,1.69c-1.8,0.49-3.79,0.54-5.49,1.15
		c-3.48,1.24-7.02,2.28-10.55,3.33c-5.41,1.62-10.68,3.62-15.97,5.58c-4.34,1.61-8.56,3.52-12.82,5.31
		c-4.44,1.87-8.75,3.99-13.09,6.04c-4.13,1.96-8.15,4.18-12.14,6.42c-4.06,2.28-7.99,4.78-12.04,7.08
		c-4.07,2.31-7.97,4.93-11.73,7.65c-4.33,3.13-8.87,6.03-12.94,9.53c-2.43,2.08-4.98,4.03-7.49,6.01c-1.54,1.22-2.89,2.68-4.46,3.78
		c-1.78,1.25-3.09,2.91-4.75,4.2c-1.71,1.33-3.17,2.81-4.6,4.46c-2.79,3.22-6.01,6.06-9.03,9.08c-2.68,2.69-5.45,5.29-7.93,8.15
		c-2.14,2.47-4.29,4.95-6.41,7.43c-2.03,2.38-4.18,4.7-6.03,7.2c-2.32,3.14-4.74,6.2-7.06,9.33c-2.44,3.28-4.71,6.69-7.26,9.91
		c-2.52,3.18-4.63,6.72-6.71,10.22c-3.02,5.08-5.95,10.21-8.74,15.43c-3.11,5.82-6.18,11.67-8.72,17.77
		c-1.2,2.88-2.67,5.64-3.62,8.63c-0.48,1.5-0.98,3.04-1.61,4.46c-1.36,3.1-2.47,6.32-3.56,9.49c-1.57,4.56-3.27,9.09-4.69,13.71
		c-0.48,1.55-0.91,3.16-1.39,4.72c-0.79,2.54-1.75,5.03-2.33,7.62c-1.03,4.58-1.7,9.25-2.72,13.81c-1.72,7.74-2.45,15.62-3.9,23.38
		c-0.74,3.94-0.71,8.01-1.05,12.01c-0.34,3.94-0.72,7.91-0.66,11.9c0.14,8.32,0.04,16.64,0.04,24.96c0,0.64-0.09,1.31,0.06,1.91
		c0.82,3.33,0.47,6.76,0.95,10.14c0.4,2.86,0.62,5.82,0.64,8.75c0,0.42,0.09,0.93,0.65,1.18c0.32-0.21,0.68-0.39,0.97-0.66
		c5.63-5.31,11.71-10.11,17.6-15.12c17.26-14.72,36.94-24.97,58.59-31.58c11.49-3.51,23.25-5.53,35.2-6.55
		c3.74-0.32,7.48-0.48,11.22-0.71c6.16-0.38,12.31-0.26,18.46-0.13c6.14,0.13,12.26,0.79,18.41,0.9c2.78,0.05,5.56,0.3,8.33,0.66
		c6.48,0.85,12.99,1.48,19.52,1.67c7.67,0.22,15.3-0.53,22.83-1.96c8.59-1.63,16.84-4.27,24.29-9.04c2.51-1.61,4.82-3.43,6.81-5.63
		c1.5-1.66,1.29-3.34-0.56-4.63c-1.14-0.8-2.41-1.25-3.78-1.39c-2.6-0.27-5.21-0.41-7.81-0.74c-3.16-0.4-6.32-0.79-9.46-1.33
		c-11.11-1.9-21.88-5.14-32.56-8.62c-18.36-5.98-36.31-13.1-54.11-20.55c-18.86-7.89-38-14.85-58.13-18.81
		c-10.18-2-20.42-3.53-30.78-3.99c-7.82-0.34-15.63,0-23.4,1.15c-0.44,0.07-0.97,0.22-1.34-0.51c1.83-5.29,3.75-10.67,5.87-15.98
		c0.53-1.33,1.34-1.71,2.72-1.74c11.45-0.26,22.8,0.63,34.05,2.75c17.13,3.23,33.76,8.19,49.99,14.55
		c11.9,4.66,23.34,10.32,34.88,15.77c12.62,5.96,25.3,11.8,38.15,17.23c1.1,0.46,2.26,0.79,3.39,1.17c0.42,0.14,0.79,0.06,0.96-0.41
		c0.15-0.42,0.05-0.78-0.36-1.01c-0.48-0.28-0.96-0.57-1.45-0.84c-6.01-3.32-11.96-6.76-17.61-10.67
		c-9.91-6.87-19.48-14.18-28.65-22c-6.55-5.59-13.17-11.11-19.64-16.79c-8.94-7.84-17.71-15.87-26.65-23.71
		c-12.1-10.6-25.14-19.9-39.21-27.73c-0.46-0.26-1.09-0.36-1.21-1.15c13.21-18.55,27.71-35.99,45.11-50.98
		c17.21-14.82,35.41-28.1,55.55-39.09c0.69,2.71,0.59,5.19,0.89,7.62c0.29,2.34,0.28,4.67,1.24,6.96c1.95,4.7,4.4,9.2,5.8,14.13
		c0.49,1.72,1.48,3.17,2.63,4.51c1.14,1.33,2.37,2.59,3.45,3.97c2.63,3.36,5.3,6.66,6.04,11.13c1.23,7.45,2.76,14.84,3.59,22.36
		c0.47,4.26,1.21,8.49,1.69,12.75c0.36,3.25,1.27,6.4,1.64,9.63c0.36,3.15,0.52,6.34,1.01,9.47c0.45,2.89,1.19,5.68,3.63,7.77
		c1,0.86,1.98,1.83,2.92,2.8c4.19,4.28,7.98,8.87,11.27,13.89c2.67,4.07,5.53,8.02,8.19,12.1c2.27,3.47,4.21,7.15,7.23,10.09
		c2.53,2.45,4.6,5.3,6.73,8.08c2.53,3.29,5.12,6.54,7.63,9.84c4.78,6.27,9.55,12.51,13.34,19.51c3.84,7.09,6.74,14.43,8.33,22.3
		c1.8,8.91,3.29,17.85,3.05,27c-0.06,2.15-0.19,4.38,0.24,6.46c1.2,5.75,0.49,11.41-0.28,17.09c-0.19,1.42-0.65,2.8-0.79,4.22
		c-0.66,6.58-2.1,13.03-3.22,19.53c-0.89,5.17-2.23,10.26-2.79,15.5c-0.46,4.29-0.74,8.57-0.86,12.87
		c-0.12,4.55-0.08,9.11-0.01,13.66c0.03,2.14,0.31,4.28,0.45,6.42c0.43,6.21-0.13,12.43,0.41,18.65c0.47,5.46,0.59,10.97,1,16.45
		c0.52,6.9,1.25,13.78,1.93,20.66c0.85,8.57,2.39,17.01,4.23,25.41c2.3,10.49,4.56,21,6.55,31.56c0.94,5.01,1.55,10.06,2.23,15.1
		c0.56,4.18,1.54,8.28,2.35,12.41c1.02,5.23,1.46,10.55,1.89,15.85c0.23,2.76,0.48,5.63-0.41,8.32c-2.28,6.9-4.71,13.73-8.55,19.98
		c-2.39,3.89-5.78,6.32-9.97,7.78c-8.07,2.82-16.42,3.88-24.93,4.11c-7.09,0.19-13.98-0.65-20.69-3.07
		c-4.56-1.64-9.15-3.23-13.72-4.82c-4.55-1.58-8.98-3.48-13.44-5.27c-5.53-2.22-10.79-5.1-16.16-7.71c-1.78-0.86-3.2-1.86-3.77-4.09
		c-2.63-10.36-4.73-20.79-5.27-31.49c-0.38-7.67-0.04-15.31,1.41-22.86c1.24-6.43,2.95-12.74,6.32-18.46
		c1.66-2.83,3.69-5.4,5.64-8.03c5.52-7.43,10.9-14.96,16.5-22.33c7.04-9.28,14.93-17.87,22.28-26.9
		c4.28-5.25,8.56-10.51,12.49-16.04c3.23-4.55,6.95-8.76,9.42-13.83c1.74-3.58,4.02-6.88,4.98-10.84c1.4-5.76,2.01-11.61,2.36-17.5
		c0.1-1.65-0.19-3.35-0.48-4.99c-0.27-1.49-0.95-1.66-2.1-0.64c-2.61,2.35-5.22,4.7-7.81,7.08c-9.89,9.09-20.47,17.3-31.46,25.01
		c-13.93,9.77-28.19,19.05-41.95,29.07c-12.15,8.84-23.96,18.09-34.15,29.23c-6.05,6.62-11.46,13.7-15.9,21.5
		c-2.17,3.81-4.48,7.6-5.75,11.81c-3.12,10.34-5.06,20.88-4.71,31.75c0.04,1.12,0.33,1.89,1.15,2.69c4.08,3.94,8.43,7.56,12.77,11.2
		c2.81,2.36,5.63,4.69,8.54,6.92c3.51,2.69,7.08,5.28,10.68,7.84c2.72,1.94,5.46,3.88,8.32,5.61c3.59,2.17,7.25,4.29,10.76,6.57
		c5.55,3.61,11.35,6.74,17.17,9.86c1.31,0.7,2.57,1.59,4.23,1.41c0.47-0.05,1.01,0.4,1.5,0.64c3.22,1.53,6.35,3.27,9.67,4.53
		c2.97,1.13,5.86,2.43,8.82,3.57c3.15,1.21,6.25,2.59,9.48,3.6c2.3,0.72,4.67,1.35,6.86,2.24c3.52,1.43,7.18,2.27,10.76,3.42
		c3.9,1.25,7.84,2.38,11.86,3.24c3.16,0.68,6.29,1.47,9.46,2.1c2.09,0.42,4.22,0.61,6.27,1.09c1.82,0.43,3.61,0.91,5.49,0.97
		c0.55,0.02,1.2-0.21,1.63,0.18c1.27,1.14,3.13,0.09,4.36,1.26c2.38-0.3,4.55,0.87,6.94,0.91c1.77,0.04,3.64,0.1,5.43,0.4
		c3.73,0.64,7.52,0.42,11.26,1.03c1.79,0.29,3.75-0.27,5.5,0.13c3.1,0.71,6.19,0.18,9.28,0.41c0.85,0.06,1.07-0.31,1.09-1.11
		c0.07-3.2,0.26-6.39,0.29-9.59c0.12-11.68,0.08-23.36,0.1-35.03c0.01-10.47,0.35-20.94,0.11-31.42
		c-0.34-14.39,0.14-28.78-0.17-43.18c-0.14-6.63-0.07-13.26-0.01-19.9c0.05-5.03,0.69-10.04,0.46-15.07
		c-0.26-5.75-0.12-11.5-0.06-17.26c0.08-8.06,0.27-16.13-0.2-24.2c-0.31-5.34-0.04-10.72-0.07-16.08c-0.02-3.6-0.2-7.2-0.12-10.8
		c0.13-6.3,0.31-12.61,0.66-18.91c0.13-2.24-0.05-4.61,1.25-6.98c1.31,2.06,1.67,4.03,1.59,6.12c-0.04,0.96-0.05,1.93,0.04,2.88
		c0.79,8.01,1.21,16.02,1,24.1c-0.22,8.38-0.59,16.76-0.72,25.14c-0.11,6.87,0.2,13.73,0.41,20.6c0.23,7.27,0.19,14.55-0.27,21.82
		c-0.2,3.12,0.42,6.22,0.3,9.32c-0.18,4.54-0.07,9.07,0.01,13.61c0.08,4.96,0,9.92,0.06,14.88c0.06,5.6,0.28,11.19,0.27,16.79
		c-0.02,7.28-0.27,14.55-0.29,21.83c-0.01,5.99,0.27,11.99,0.26,17.98c0,6.48-0.3,12.95-0.24,19.43c0.03,4.16,0.22,8.32,0.08,12.47
		c-0.22,6.96-0.06,13.92-0.12,20.88c-0.01,1.63,0.03,1.57,1.71,1.67c4.23,0.27,8.41-0.56,12.62-0.45c3.97,0.1,7.83-1.21,11.81-0.72
		c0.15,0.02,0.32,0,0.47-0.05c2.36-0.83,4.87-0.52,7.29-0.77c2.17-0.23,4.2-1.38,6.45-0.94c0.12,0.02,0.29-0.11,0.42-0.19
		c1.36-0.78,3.09-0.19,4.38-1.21c3.03,0.3,5.87-0.86,8.8-1.29c4.27-0.62,8.47-1.79,12.68-2.76c2.56-0.59,5.16-1.11,7.66-1.93
		c5.19-1.71,10.47-3.09,15.64-4.89c5.69-1.98,11.42-3.82,17-6.1c4.64-1.9,9.28-3.82,13.82-5.96c1.7-0.8,3.37-1.96,5.09-2.31
		c1.95-0.4,3.55-1.29,5.25-2.09c1.37-0.64,2.72-1.33,4.04-2.09c5.62-3.23,11.29-6.39,16.82-9.76c4.19-2.55,8.25-5.32,12.3-8.09
		c2.8-1.91,5.69-3.74,8.32-5.84c4.2-3.36,8.58-6.48,12.6-10.09c4.28-3.84,8.72-7.48,12.92-11.41c0.89-0.83,1.27-1.64,1.29-2.87
		c0.1-6.56-0.2-13.07-1.6-19.5c-1.33-6.14-2.57-12.28-5.44-18c-7.35-14.61-17.5-27.04-29.6-37.9c-9.69-8.71-20.09-16.53-30.81-23.93
		c-11.5-7.94-22.99-15.9-34.53-23.79c-13.8-9.44-26.54-20.18-38.81-31.51c-0.66-0.61-1.2-1.89-2.23-1.4c-0.96,0.45-0.85,1.78-1,2.79
		c-0.02,0.16,0,0.32-0.01,0.48c-0.39,5.21,0.3,10.34,1.16,15.45c0.47,2.83,0.89,5.72,2.14,8.31c2.57,5.31,5.21,10.61,8.75,15.38
		c1.42,1.92,3.02,3.73,4.36,5.7c3.5,5.16,7.48,9.95,11.41,14.76c6.41,7.84,13.07,15.48,19.5,23.31
		c8.37,10.18,15.68,21.15,23.67,31.63c1.69,2.22,3.15,4.63,4.28,7.19c4.71,10.71,6.07,22.06,6.13,33.6
		c0.02,4.04-0.5,8.09-0.87,12.13c-0.74,8.04-2.72,15.83-4.61,23.65c-0.53,2.19-1.75,3.43-3.6,4.19c-4.32,1.77-8.38,4.08-12.62,6.02
		c-5.91,2.71-11.96,5.07-17.98,7.48c-5.57,2.22-11.37,3.91-17.11,5.67c-3.74,1.14-7.64,1.5-11.54,1.62
		c-2.95,0.09-5.91-0.12-8.86-0.2c-7.16-0.21-14.07-1.61-20.84-3.85c-4.3-1.43-7.73-3.93-10.15-7.89
		c-3.87-6.32-6.23-13.26-8.62-20.19c-0.25-0.73-0.21-1.58-0.25-2.37c-0.29-5.92,0.43-11.79,1.25-17.63
		c1.1-7.78,2.83-15.45,3.87-23.27c1.64-12.3,4.53-24.4,7.18-36.52c1.65-7.54,3.32-15.07,4.22-22.76c0.71-6.08,1.28-12.17,1.93-18.26
		c0.81-7.52,1.25-15.07,1.63-22.61c0.24-4.75,0.56-9.51,0.33-14.31c-0.21-4.43,0.52-8.89,0.68-13.35
		c0.23-6.39-0.01-12.78-0.34-19.16c-0.2-3.97-0.56-7.94-1.33-11.85c-1.06-5.39-2.12-10.77-3.08-16.18
		c-1.12-6.26-2.22-12.52-3.17-18.8c-0.69-4.58-1.04-9.22-0.49-13.83c0.4-3.33,0.65-6.66,0.7-10.01c0.04-2.48,0-4.96,0.17-7.43
		c0.4-5.64,1.36-11.21,2.44-16.75c1.56-8.02,4.01-15.72,8.06-22.89c2.63-4.65,4.98-9.43,8.36-13.63c3.65-4.53,7.17-9.17,10.78-13.74
		c3.21-4.07,6.26-8.27,9.84-12.04c1.27-1.33,2.63-2.59,3.53-4.21c3.14-5.67,6.9-10.94,10.63-16.22c1.43-2.02,2.34-4.35,4-6.21
		c3.03-3.39,5.79-7.02,9.14-10.12c3.23-2.97,4.84-6.7,5.33-11.06c0.33-3,0.36-6.05,0.97-8.99c0.9-4.36,1.64-8.75,2.15-13.16
		c1.13-9.88,2.6-19.69,4.43-29.46c0.63-3.37,1.94-6.32,4.02-8.97c2.36-3.01,4.72-6.01,7.14-8.98c0.46-0.57,0.93-1.11,1.16-1.79
		c1.8-5.46,4.06-10.71,6.59-15.87c0.17-0.34,0.16-0.77,0.2-1.16c0.22-2.69,0.4-5.39,0.66-8.08c0.12-1.3,0.37-2.6,0.63-4.33
		c40.52,22.84,74.88,51.94,100.83,90.43c-0.28,0.58-0.84,0.75-1.32,1.02c-15.71,8.72-30.03,19.34-43.37,31.33
		c-7.36,6.62-14.75,13.2-22.15,19.77c-6.98,6.19-14.11,12.21-21.28,18.18c-14.19,11.83-28.84,22.99-45.19,31.73
		c-0.49,0.26-0.97,0.56-1.44,0.86c-0.31,0.19-0.38,0.5-0.27,0.83c0.15,0.44,0.48,0.63,0.93,0.5c0.84-0.25,1.69-0.46,2.5-0.79
		c2.65-1.09,5.3-2.2,7.93-3.34c17.35-7.51,34.27-15.96,51.48-23.76c27.8-12.58,56.58-21.61,87.27-23.46
		c4.07-0.24,8.16-0.07,12.23-0.09c0.87,0,1.48,0.27,1.82,1.2c0.48,1.32,1.14,2.58,1.69,3.87c1.26,2.98,1.99,6.14,3.35,9.09
		c0.55,1.19,1.02,2.55,1.05,4.04c-0.62,0-1.1,0.07-1.56-0.01c-4.17-0.71-8.39-1.01-12.59-1.16c-8.14-0.28-16.26,0.15-24.36,1.19
		c-16.51,2.12-32.64,5.86-48.39,11.21c-12.31,4.18-24.23,9.39-36.28,14.25c-18.35,7.39-36.78,14.55-55.78,20.13
		c-12.57,3.69-25.3,6.44-38.41,7.24c-1.72,0.1-3.24,0.74-4.62,1.77c-0.57,0.42-0.81,0.96-1,1.56c-0.4,1.26,0.28,2.11,1.09,2.95
		c5.11,5.32,11.47,8.58,18.27,11.06c7,2.55,14.28,3.98,21.68,4.7c5.8,0.56,11.61,1.02,17.44,0.51c6.11-0.53,12.22-0.99,18.3-1.79
		c3.57-0.47,7.17-0.35,10.75-0.53c4.94-0.25,9.87-0.75,14.81-0.8c5.99-0.07,11.98-0.11,17.98,0.17c7.9,0.37,15.76,0.99,23.56,2.23
		c24.47,3.89,47.06,12.65,67.57,26.62c10.05,6.84,19.05,14.99,28.25,22.88c1.17,1.01,2.15,2.32,3.88,3.02
		c0.09-3.61,1.17-6.9,0.94-10.34c-0.03-0.48-0.11-1,0.04-1.43c1.18-3.29,0.83-6.78,0.95-10.12
		C594.3,304.98,594.07,295.21,594.07,285.45z M430.67,47.23c-1.03,2.44-1.53,5-1.95,7.61c-0.24,1.53-1.37,2.67-2.26,3.88
		c-0.75,1.03-1.58,2.02-2,3.24c-1.06,3.13-3.1,5.47-5.64,7.51c-3.23,2.6-6.41,5.18-10.4,6.67c-3.19,1.19-5.35,6.36-4.87,10.12
		c0.84,6.6,0.85,13.18-1.05,19.66c-0.56,1.9-1,3.86-1.28,5.82c-0.24,1.7-0.73,3.29-1.53,4.76c-3.98,7.33-6.46,15.25-9.32,23.04
		c-1.73,4.72-4.4,9-7.06,13.29c-3.95,6.37-10.07,10.11-16.04,14.09c-2.93,1.95-5.64,4.11-8.26,6.49c-4.09,3.72-7.8,7.76-11.31,11.98
		c-1.93,2.32-4.37,3.09-7.04,3.6c-2.34,0.45-4.72,0.75-7.08,1.09c-2.97,0.42-5.61,1.73-8.28,2.97c-2.03,0.95-4.06,1.77-6.35,1.88
		c-2.06,0.1-3.04-0.44-4.08-2.17c-1.77-2.98-1.95-6.05-1.38-9.43c0.63-3.71,1.69-7.28,2.63-10.9c0.29-1.11,0.63-2.05,1.94-2.46
		c1.02-0.31,1.59-1.27,1.86-2.34c0.58-2.32,0.92-4.68,0.95-7.08c0.01-0.83-0.08-1.61-0.96-2.01c-0.9-0.41-0.89-1.21-0.9-2.03
		c-0.03-1.91,0.08-3.81-0.35-5.72c-1.61-7.2-6.19-11.66-12.92-14.11c-7.61-2.77-14.17-0.5-19.75,4.78
		c-3.53,3.34-5.22,7.75-5.37,12.67c-0.03,0.88-0.02,1.76,0,2.64c0.02,0.75-0.02,1.44-0.84,1.8c-0.9,0.39-1.03,1.25-0.95,2.02
		c0.22,2.21,0.21,4.46,0.82,6.62c0.36,1.29,0.9,2.46,2.25,2.89c1.01,0.32,1.34,1.03,1.58,1.91c0.96,3.52,2.02,7.02,2.68,10.62
		c0.68,3.73,0.03,7.27-1.57,10.64c-0.55,1.16-1.77,1.8-2.97,1.68c-1.4-0.13-2.83-0.02-4.22-0.6c-1.47-0.62-2.93-1.27-4.34-1.99
		c-3.62-1.87-7.57-2.35-11.5-2.97c-2.12-0.34-4.23-0.7-6.29-1.4c-1.12-0.38-1.92-0.95-2.66-1.87c-4.61-5.73-9.71-10.99-15.28-15.77
		c-3.03-2.6-6.6-4.48-9.87-6.76c-2.23-1.56-4.38-3.2-6.41-5c-2.6-2.31-4.42-5.28-6.21-8.15c-3.64-5.83-6.28-12.16-8.27-18.77
		c-1.01-3.34-2.31-6.6-4.04-9.69c-2.42-4.31-4.36-8.81-5.22-13.77c-0.54-3.11-1.71-6.12-1.93-9.31c-0.27-3.9-0.48-7.8,0.13-11.68
		c0.48-3.02,0.11-5.89-1.43-8.54c-0.68-1.17-1.52-2.26-2.93-2.67c-4.36-1.28-7.48-4.44-10.92-7.14c-2.34-1.84-3.89-4.12-4.92-6.87
		c-0.47-1.26-1.31-2.36-2.16-3.42c-1.2-1.49-2.18-3.11-2.4-5.09c-0.23-1.98-0.73-3.89-1.5-5.75c-0.68-1.67-0.6-1.86,0.9-2.64
		c2.05-1.06,4.12-2.08,6.24-2.99c2.07-0.89,4.21-1.62,6.13-2.81c2.26-1.41,4.95-1.71,7.3-2.99c2.7-1.46,5.75-2.15,8.53-3.55
		c1.47-0.75,3.21-1.08,4.8-1.71c2.87-1.12,5.86-1.94,8.77-2.97c3.43-1.21,7.03-1.86,10.44-3.03c3.39-1.16,6.88-1.76,10.28-2.78
		c2.96-0.89,6.01-1.32,9-2.08c1.37-0.35,2.82-0.39,4.16-0.82c3.03-0.97,6.28-0.72,9.29-1.82c1.07-0.39,2.4-0.4,3.49-0.39
		c2.39,0.03,4.6-0.8,6.93-1c4.01-0.34,8.04-0.59,12.03-1.03c2.18-0.24,4.35-0.43,6.54-0.44c7.16-0.8,14.34-0.56,21.51-0.56
		c4.85,0,9.69,0.79,14.55,0.47c2.73,1.37,5.74,0.46,8.61,1.01c2.18,0.42,4.58,0.32,6.82,0.68c2.14,0.35,4.27,0.75,6.42,0.97
		c3.03,0.3,5.95,1.32,9.01,1.35c1.34,0.02,2.46,0.75,3.8,0.9c3.48,0.38,6.93,1.2,10.29,2.1c3.73,1,7.57,1.63,11.23,2.84
		c2.78,0.92,5.67,1.5,8.4,2.48c3.17,1.13,6.39,2.18,9.55,3.36c1.87,0.7,3.73,1.6,5.75,1.92c1.55,0.25,2.83,1.21,4.3,1.71
		c3.87,1.33,7.66,2.94,11.39,4.56c3.7,1.6,7.43,3.25,11,5.19c1.04,0.56,2.08,1.16,3.16,1.63C430.85,45.71,431.02,46.39,430.67,47.23
		z"/>
</g>
</svg>
