<svg width="18" height="18" viewBox="0 0 18 18" fill="none" xmlns="http://www.w3.org/2000/svg">
<rect width="18" height="18" fill="white"/>
<path d="M15.3462 8.35353L4.1948 2.34955C4.07371 2.28433 3.93635 2.25 3.79653 2.25C3.65671 2.25 3.51936 2.28433 3.39827 2.34955C3.27672 2.41502 3.17586 2.50929 3.10593 2.62281C3.03599 2.73634 2.99945 2.86508 3.00001 2.99602V15.004C2.99945 15.1349 3.03599 15.2637 3.10593 15.3772C3.17586 15.4907 3.27672 15.585 3.39827 15.6504C3.51936 15.7157 3.65671 15.75 3.79653 15.75C3.93635 15.75 4.07371 15.7157 4.1948 15.6504L15.3462 9.64647C15.4688 9.58166 15.5707 9.48768 15.6417 9.37411C15.7126 9.26054 15.75 9.13144 15.75 9C15.75 8.86856 15.7126 8.73946 15.6417 8.62589C15.5707 8.51232 15.4688 8.41834 15.3462 8.35353ZM4.59306 13.7185V4.28153L13.3549 9L4.59306 13.7185Z" fill="black"/>
<path d="M4 12.382V5.61803C4 4.87465 4.78231 4.39116 5.44722 4.72361L12.2111 8.10557C12.9482 8.4741 12.9482 9.5259 12.2111 9.89443L5.44721 13.2764C4.78231 13.6088 4 13.1253 4 12.382Z" fill="black" stroke="black" stroke-width="1.7"/>
</svg>
